<?xml version="1.0" encoding="UTF-8"?>
<!-- Generator: Adobe Illustrator 17.1.0, SVG Export Plug-In . SVG Version: 6.00 Build 0)  -->
<!DOCTYPE svg PUBLIC "-//W3C//DTD SVG 1.1//EN" "http://www.w3.org/Graphics/SVG/1.1/DTD/svg11.dtd">
<svg version="1.1" id="Layer_1" xmlns="http://www.w3.org/2000/svg" xmlns:xlink="http://www.w3.org/1999/xlink" x="0px" y="0px" viewBox="0 0 241.6 394" enable-background="new 0 0 241.6 394" xml:space="preserve">
<g opacity="0.37">
	<ellipse fill="#47B973" cx="235.3" cy="57.8" rx="7.4" ry="7.4"/>
	<ellipse fill="#47B973" cx="235.3" cy="32.6" rx="4.2" ry="4.2"/>
	<ellipse opacity="0.4" fill="#47B973" cx="235.3" cy="7.4" rx="7.4" ry="7.4"/>
	<ellipse fill="#47B973" cx="210" cy="108.2" rx="7.4" ry="7.4"/>
	<ellipse opacity="0.7" fill="#47B973" cx="210" cy="57.8" rx="7.4" ry="7.4"/>
	<ellipse fill="#47B973" cx="184.6" cy="133.4" rx="5.3" ry="5.2"/>
	<ellipse opacity="0.4" fill="#47B973" cx="184.6" cy="108.2" rx="7.4" ry="7.4"/>
	<ellipse fill="#47B973" cx="184.6" cy="57.8" rx="7.4" ry="7.4"/>
	<ellipse opacity="0.4" fill="#47B973" cx="184.6" cy="32.6" rx="9.5" ry="9.4"/>
	<ellipse fill="#47B973" cx="159.3" cy="32.6" rx="7.4" ry="7.4"/>
	<ellipse fill="#47B973" cx="134" cy="7.4" rx="7.4" ry="7.4"/>
	<ellipse opacity="0.4" fill="#47B973" cx="108.7" cy="32.6" rx="7.4" ry="7.4"/>
	<ellipse fill="#47B973" cx="83.4" cy="32.6" rx="5.3" ry="5.2"/>
	<ellipse fill="#47B973" cx="108.7" cy="82.4" rx="5.3" ry="5.2"/>
	<ellipse fill="#47B973" cx="58.1" cy="32.6" rx="4.2" ry="4.2"/>
	<ellipse opacity="0.4" fill="#47B973" cx="134" cy="108.2" rx="4.2" ry="4.2"/>
	<ellipse opacity="0.7" fill="#47B973" cx="58.1" cy="7.4" rx="7.4" ry="7.4"/>
	<path opacity="0.7" fill="#47B973" d="M227.8,133.4c0-3.4,2.3-6.2,5.3-7.1v-11c-3.1-0.9-5.3-3.7-5.3-7.1c0-4.1,3.3-7.4,7.4-7.4   c4.1,0,7.4,3.3,7.4,7.4c0,3.4-2.3,6.2-5.3,7.1v11c3.1,0.9,5.3,3.7,5.3,7.1c0,4.1-3.3,7.4-7.4,7.4   C231.2,140.8,227.8,137.5,227.8,133.4z"/>
	<path fill="#47B973" d="M184.6,14.8c-4.1,0-7.4-3.3-7.4-7.4c0-4.1,3.3-7.4,7.4-7.4c3.4,0,6.2,2.2,7.1,5.3h11   c0.9-3.1,3.8-5.3,7.1-5.3c4.1,0,7.4,3.3,7.4,7.4c0,4.1-3.3,7.4-7.4,7.4c-3.4,0-6.2-2.2-7.1-5.3h-11C190.9,12.6,188,14.8,184.6,14.8   z"/>
	<ellipse fill="#47B973" cx="210" cy="83" rx="7.4" ry="7.4"/>
	<ellipse opacity="0.7" fill="#47B973" cx="159.3" cy="83" rx="7.4" ry="7.4"/>
	<path opacity="0.4" fill="#47B973" d="M40.2,7.4c0,4.1-3.3,7.4-7.4,7.4c-1.3,0-2.5-0.3-3.6-0.9L14,29.1c0.6,1.1,0.9,2.3,0.9,3.5   c0,4.1-3.3,7.4-7.4,7.4C3.3,40,0,36.7,0,32.6c0-4.1,3.3-7.4,7.4-7.4c1.3,0,2.5,0.3,3.6,0.9L26.2,11c-0.6-1.1-0.9-2.3-0.9-3.5   c0-4.1,3.3-7.4,7.4-7.4C36.9,0,40.2,3.4,40.2,7.4z"/>
</g>
<g opacity="0.37">
	<ellipse fill="#47B973" cx="185.6" cy="158.8" rx="7.2" ry="7.4"/>
	<ellipse fill="#47B973" cx="210" cy="158.8" rx="4.1" ry="4.2"/>
	<ellipse opacity="0.4" fill="#47B973" cx="234.5" cy="158.8" rx="7.2" ry="7.4"/>
	<ellipse fill="#47B973" cx="136.7" cy="184.1" rx="7.2" ry="7.4"/>
	<ellipse opacity="0.7" fill="#47B973" cx="185.6" cy="184.1" rx="7.2" ry="7.4"/>
	<ellipse fill="#47B973" cx="112.2" cy="209.4" rx="5.1" ry="5.3"/>
	<ellipse opacity="0.4" fill="#47B973" cx="136.7" cy="209.4" rx="7.2" ry="7.4"/>
	<ellipse fill="#47B973" cx="185.6" cy="209.4" rx="7.2" ry="7.4"/>
	<ellipse opacity="0.4" fill="#47B973" cx="210" cy="209.4" rx="9.1" ry="9.5"/>
	<ellipse fill="#47B973" cx="210" cy="234.7" rx="7.2" ry="7.4"/>
	<ellipse fill="#47B973" cx="234.5" cy="260" rx="7.2" ry="7.4"/>
	<ellipse opacity="0.4" fill="#47B973" cx="210" cy="285.3" rx="7.2" ry="7.4"/>
	<ellipse fill="#47B973" cx="210" cy="310.6" rx="5.1" ry="5.3"/>
	<ellipse fill="#47B973" cx="161.7" cy="285.3" rx="5.1" ry="5.3"/>
	<ellipse fill="#47B973" cx="210" cy="335.9" rx="4.1" ry="4.2"/>
	<ellipse opacity="0.4" fill="#47B973" cx="136.7" cy="260" rx="4.1" ry="4.2"/>
	<ellipse opacity="0.7" fill="#47B973" cx="234.5" cy="335.9" rx="7.2" ry="7.4"/>
	<path opacity="0.7" fill="#47B973" d="M112.2,166.2c3.3,0,6-2.3,6.9-5.3h10.7c0.9,3.1,3.6,5.3,6.9,5.3c4,0,7.2-3.3,7.2-7.4   c0-4.1-3.2-7.4-7.2-7.4c-3.3,0-6,2.3-6.9,5.3h-10.7c-0.9-3.1-3.6-5.3-6.9-5.3c-4,0-7.2,3.3-7.2,7.4   C105,162.9,108.2,166.2,112.2,166.2z"/>
	<path fill="#47B973" d="M227.3,209.4c0,4.1,3.2,7.4,7.2,7.4c4,0,7.2-3.3,7.2-7.4c0-3.4-2.2-6.2-5.2-7.1v-11c3-0.9,5.2-3.8,5.2-7.1   c0-4.1-3.2-7.4-7.2-7.4c-4,0-7.2,3.3-7.2,7.4c0,3.4,2.2,6.2,5.2,7.1v11C229.4,203.2,227.3,206,227.3,209.4z"/>
	<ellipse fill="#47B973" cx="161.1" cy="184.1" rx="7.2" ry="7.4"/>
	<ellipse opacity="0.7" fill="#47B973" cx="161.1" cy="234.7" rx="7.2" ry="7.4"/>
	<path opacity="0.4" fill="#47B973" d="M234.4,353.8c-4,0-7.2,3.3-7.2,7.4c0,1.3,0.3,2.5,0.9,3.6l-14.7,15.2c-1-0.6-2.2-0.9-3.4-0.9   c-4,0-7.2,3.3-7.2,7.4c0,4.1,3.2,7.4,7.2,7.4c4,0,7.2-3.3,7.2-7.4c0-1.3-0.3-2.5-0.9-3.6l14.7-15.2c1,0.6,2.2,0.9,3.4,0.9   c4,0,7.2-3.3,7.2-7.4C241.6,357.2,238.4,353.8,234.4,353.8z"/>
</g>
</svg>