<?xml version="1.0" encoding="UTF-8"?>
<!-- Generator: Adobe Illustrator 18.0.0, SVG Export Plug-In . SVG Version: 6.00 Build 0)  -->
<!DOCTYPE svg PUBLIC "-//W3C//DTD SVG 1.1//EN" "http://www.w3.org/Graphics/SVG/1.1/DTD/svg11.dtd">
<svg version="1.1" id="Layer_1" xmlns="http://www.w3.org/2000/svg" xmlns:xlink="http://www.w3.org/1999/xlink" x="0px" y="0px" viewBox="230.4 0 151.2 502" enable-background="new 230.4 0 151.2 502" xml:space="preserve">
<g opacity="0.4">
	<circle fill="#31B672" cx="292.4" cy="383" r="8"/>
	<circle fill="#31B672" cx="265.4" cy="383" r="4.5"/>
	<circle opacity="0.4" fill="#31B672" enable-background="new    " cx="238.4" cy="383" r="8"/>
	<circle fill="#31B672" cx="373.6" cy="356" r="8"/>
	<circle opacity="0.7" fill="#31B672" enable-background="new    " cx="292.4" cy="356" r="8"/>
	<circle fill="#31B672" cx="373.5" cy="328.9" r="5.6"/>
	<circle opacity="0.4" fill="#31B672" enable-background="new    " cx="346.6" cy="328.9" r="8"/>
	<circle fill="#31B672" cx="292.4" cy="328.9" r="8"/>
	<circle opacity="0.4" fill="#31B672" enable-background="new    " cx="265.4" cy="328.9" r="10.1"/>
	<circle fill="#31B672" cx="265.4" cy="301.9" r="8"/>
	<circle fill="#31B672" cx="238.4" cy="274.9" r="8"/>
	<circle opacity="0.4" fill="#31B672" enable-background="new    " cx="265.4" cy="247.8" r="8"/>
	<circle fill="#31B672" cx="265.4" cy="220.8" r="5.6"/>
	<circle fill="#31B672" cx="318.8" cy="247.8" r="5.6"/>
	<circle fill="#31B672" cx="265.4" cy="193.8" r="4.5"/>
	<circle opacity="0.4" fill="#31B672" enable-background="new    " cx="346.6" cy="274.9" r="4.5"/>
	<circle opacity="0.7" fill="#31B672" enable-background="new    " cx="238.4" cy="193.8" r="8"/>
	<circle opacity="0.7" fill="#31B672" enable-background="new    " cx="265.4" cy="112.6" r="8"/>
	<circle fill="#31B672" cx="238.4" cy="112.6" r="8"/>
	<circle opacity="0.4" fill="#31B672" enable-background="new    " cx="238.4" cy="85.6" r="8"/>
	<circle opacity="0.7" fill="#31B672" enable-background="new    " cx="265.4" cy="58.6" r="8"/>
	<circle opacity="0.4" fill="#31B672" enable-background="new    " cx="265.4" cy="4.5" r="4.5"/>
	<path opacity="0.7" fill="#31B672" enable-background="new    " d="M373.5,375.1c-3.6,0-6.6,2.4-7.6,5.7h-11.7   c-1-3.3-4-5.7-7.6-5.7c-4.4,0-8,3.5-8,8s3.5,8,8,8c3.6,0,6.6-2.4,7.6-5.7H366c1,3.3,4,5.7,7.6,5.7c4.4,0,8-3.5,8-8   C381.5,378.7,377.9,375.1,373.5,375.1z"/>
	<path fill="#31B672" d="M300.5,273.6c0-4.4-3.5-8-8-8s-8,3.5-8,8c0,3.6,2.4,6.6,5.7,7.6V293c-3.3,1-5.7,4-5.7,7.6c0,4.4,3.5,8,8,8   s8-3.5,8-8c0-3.6-2.4-6.6-5.7-7.6v-11.8C298,280.2,300.5,277.2,300.5,273.6z"/>
	<circle fill="#31B672" cx="319.5" cy="356" r="8"/>
	<circle opacity="0.7" fill="#31B672" enable-background="new    " cx="319.5" cy="301.9" r="8"/>
	<path opacity="0.4" fill="#31B672" enable-background="new    " d="M238.4,174.7c4.4,0,8-3.5,8-8c0-1.3-0.3-2.7-1-3.8l16.2-16.2   c1.1,0.7,2.4,1,3.8,1c4.4,0,8-3.5,8-8s-3.5-8-8-8c-4.4,0-8,3.5-8,8c0,1.3,0.3,2.7,1,3.8l-16.2,16.2c-1.1-0.7-2.4-1-3.8-1   c-4.4,0-8,3.5-8,8C230.4,171,234.1,174.7,238.4,174.7z"/>
</g>
<g opacity="0.4">
	<circle fill="#31B672" cx="292.4" cy="409" r="4.5"/>
	<circle fill="#31B672" cx="346.7" cy="436.1" r="8"/>
	<circle opacity="0.7" fill="#31B672" enable-background="new    " cx="292.5" cy="436.1" r="8"/>
	<circle fill="#31B672" cx="373.6" cy="463.1" r="5.6"/>
	<circle opacity="0.4" fill="#31B672" enable-background="new    " cx="346.7" cy="463.1" r="8"/>
	<circle fill="#31B672" cx="292.5" cy="463.1" r="8"/>
	<circle opacity="0.4" fill="#31B672" enable-background="new    " cx="265.4" cy="463.1" r="10.1"/>
	<circle fill="#31B672" cx="265.4" cy="490.1" r="8"/>
	<path opacity="0.7" fill="#31B672" enable-background="new    " d="M346.6,417c-3.6,0-6.6-2.4-7.6-5.7h-11.8c-1,3.3-4,5.7-7.6,5.7   c-4.4,0-8-3.5-8-8s3.5-8,8-8c3.6,0,6.6,2.4,7.6,5.7h11.8c1-3.3,4-5.7,7.6-5.7c4.4,0,8,3.5,8,8C354.5,413.5,350.9,417,346.6,417z"/>
	<path fill="#31B672" d="M246.4,463.1c0,4.4-3.5,8-8,8c-4.4,0-8-3.5-8-8c0-3.6,2.4-6.6,5.7-7.6v-11.8c-3.3-1-5.7-4-5.7-7.6   c0-4.4,3.5-8,8-8c4.4,0,8,3.5,8,8c0,3.6-2.4,6.6-5.7,7.6v11.8C244,456.4,246.4,459.5,246.4,463.1z"/>
	<circle fill="#31B672" cx="319.6" cy="436.1" r="8"/>
	<circle opacity="0.7" fill="#31B672" enable-background="new    " cx="319.6" cy="490.1" r="8"/>
</g>
</svg>