<svg id="Layer_1" data-name="Layer 1" xmlns="http://www.w3.org/2000/svg" viewBox="0 0 446.74 130"><defs><style>.cls-1{fill:#16c473;}.cls-2{fill:#405075;}</style></defs><title>TW_logo</title><path class="cls-1" d="M144.47,74.14q4.86,1.74,4.86,4.64a14.06,14.06,0,0,1-.87,3.55l-13.92,40.23a7.47,7.47,0,0,1-.51,1.23,6.94,6.94,0,0,1-1.92,1.92,6.31,6.31,0,0,1-7.39,0,6.41,6.41,0,0,1-2.07-2.36l-8.48-25L106,122.56a6.37,6.37,0,0,1-.65,1.23,8.51,8.51,0,0,1-1.16,1.45,5.44,5.44,0,0,1-4,1.67,6.28,6.28,0,0,1-3.81-1.09,6,6,0,0,1-2-2.17l-.51-1.09-14-40.23a12.6,12.6,0,0,1-.8-3.55q0-2.9,4.86-4.57a11.82,11.82,0,0,1,3.81-.72,3.12,3.12,0,0,1,2.61,1.16A11.15,11.15,0,0,1,92,78.2l8,24.21,7.9-23.85a6.58,6.58,0,0,1,3.7-4.2,7.58,7.58,0,0,1,3-.51A5.63,5.63,0,0,1,118,75a5.68,5.68,0,0,1,2,2.36l8.34,25.15,8-24.36q.58-1.67.94-2.46a4.34,4.34,0,0,1,1.34-1.56,3.83,3.83,0,0,1,2.43-.76A10.06,10.06,0,0,1,144.47,74.14Z"/><path class="cls-1" d="M155.49,80.22a21.28,21.28,0,0,1,.11-2.5,5.79,5.79,0,0,1,.69-1.92q1-2,5.65-2,5.07,0,6,2.68a14.47,14.47,0,0,1,.36,3.77v40.3a21.12,21.12,0,0,1-.11,2.54,5.84,5.84,0,0,1-.69,1.88q-1,2-5.65,2-5.08,0-5.94-2.75a11.39,11.39,0,0,1-.43-3.7Z"/><path class="cls-1" d="M177.09,119.51a6.94,6.94,0,0,1-1.88-4.17q0-1.85,3.12-4.89a5.5,5.5,0,0,1,3.84-1.74q2,0,5.65,3.62a11,11,0,0,0,2.9,2.36,6.88,6.88,0,0,0,3.48,1.12q6.74,0,6.74-5.51a3.25,3.25,0,0,0-1.85-2.79,13.56,13.56,0,0,0-4.6-1.63,42,42,0,0,1-11.89-4.28,12,12,0,0,1-4.6-4.82,16,16,0,0,1-1.85-7.94,15.24,15.24,0,0,1,4.75-11.13Q185.65,73,193.84,73a26.48,26.48,0,0,1,7.94,1.12,15.24,15.24,0,0,1,5,2.28l1.81,1.38q2.25,2.1,2.25,3.55a8,8,0,0,1-1.74,4q-2.46,3.63-5.07,3.62a7.43,7.43,0,0,1-3.77-1.45,8.21,8.21,0,0,1-.83-.72,11.33,11.33,0,0,0-1.12-.94,7.27,7.27,0,0,0-3.88-.94A6.52,6.52,0,0,0,190.47,86a3.63,3.63,0,0,0-1.56,3.12,3.73,3.73,0,0,0,1.85,3.23,11.4,11.4,0,0,0,4.6,1.67,54.34,54.34,0,0,1,6,1.34,37.56,37.56,0,0,1,6,2.21,10.63,10.63,0,0,1,4.6,4.53,15.74,15.74,0,0,1,1.85,7.94,17.59,17.59,0,0,1-1.88,8.3,14.35,14.35,0,0,1-4.93,5.55,22.5,22.5,0,0,1-12.54,3.84,24.34,24.34,0,0,1-6.45-.83,17.44,17.44,0,0,1-4.93-2.07,17.62,17.62,0,0,1-5.36-4.49Z"/><path class="cls-1" d="M233.56,114.15h22.33a21,21,0,0,1,2.5.11,5.82,5.82,0,0,1,1.92.69q2,1,2,5.65,0,5.07-2.68,5.94a12.13,12.13,0,0,1-3.77.43H227.11q-5.07,0-5.94-2.75a11.38,11.38,0,0,1-.44-3.7V80.22q0-3.7,1.38-5t5.22-1.34h28.56a21,21,0,0,1,2.5.11,5.82,5.82,0,0,1,1.92.69q2,1,2,5.65,0,5.07-2.68,5.94a12.13,12.13,0,0,1-3.77.43H233.56V94h14.35a21,21,0,0,1,2.5.11,5.81,5.81,0,0,1,1.92.69q2,1,2,5.65,0,5.07-2.75,5.94a12.12,12.12,0,0,1-3.77.43H233.56Z"/><path class="cls-1" d="M325.62,75.88a5.76,5.76,0,0,1,.69,2,22,22,0,0,1,.11,2.54V120.6q0,5-2.75,5.87a11.75,11.75,0,0,1-3.48.43,12.21,12.21,0,0,1-3.33-.36,5.71,5.71,0,0,1-1.88-.87,3.26,3.26,0,0,1-1-1.45,14.38,14.38,0,0,1-.36-3.77V96.17q-1.81,2.25-5.29,7.14t-4.42,6.13l-1.3,1.7a6.94,6.94,0,0,1-1.78,1.3,6.08,6.08,0,0,1-6,.07,6.68,6.68,0,0,1-1.92-1.49l-.58-.8q-1.45-1.81-5.73-7.72t-4.64-6.34V120.6a21.07,21.07,0,0,1-.11,2.5,5.15,5.15,0,0,1-.69,1.85q-1.09,2-5.65,2t-5.51-2a5.13,5.13,0,0,1-.69-1.88,23.16,23.16,0,0,1-.11-2.61V80.22a21.28,21.28,0,0,1,.11-2.5,5.79,5.79,0,0,1,.69-1.92q1.09-1.88,5.65-1.88a10.72,10.72,0,0,1,3.37.47,4.37,4.37,0,0,1,1.85,1l.43.43,16.45,21.6Q310,81.09,314.17,75.88q1.23-2,5.83-2T325.62,75.88Z"/><path class="cls-1" d="M363.64,77.62l19.57,40.45a9.47,9.47,0,0,1,1.23,3.7q0,2.61-4.2,4.71a9.51,9.51,0,0,1-3.88,1.23,3.87,3.87,0,0,1-2.32-.65,4.31,4.31,0,0,1-1.3-1.38q-.4-.72-1.12-2.17l-3.77-7.83H347.77L344,123.5q-.72,1.45-1.12,2.1a5.18,5.18,0,0,1-1.31,1.34,3.73,3.73,0,0,1-2.32.69,9.51,9.51,0,0,1-3.88-1.23q-4.2-2-4.2-4.64a9.45,9.45,0,0,1,1.23-3.7L352,77.54a6.33,6.33,0,0,1,2.43-2.68,6.42,6.42,0,0,1,3.44-1A6.14,6.14,0,0,1,363.64,77.62ZM357.77,95,353,104.94h9.64Z"/><path class="cls-1" d="M440.62,107.18V90.65a1.88,1.88,0,0,1,.71-1.5,9.33,9.33,0,0,0,3.6-8.46,10,10,0,0,0-8.23-8.24,9.35,9.35,0,0,0-6.76,16.71,1.88,1.88,0,0,1,.71,1.5v15.19a.42.42,0,0,1-.72.3L412.08,88.29a2.23,2.23,0,0,1-.54-2.28,13.75,13.75,0,1,0-8.79,8.79,2.46,2.46,0,0,1,2.28.54L424,114.27a2.92,2.92,0,0,1,.77,2.62,11.1,11.1,0,1,0,17.2-7.12A3.12,3.12,0,0,1,440.62,107.18Z"/><circle class="cls-1" cx="398.48" cy="118.9" r="8.44"/><path class="cls-2" d="M49,2.08a8,8,0,0,0-3.41-.54H5.29a8.44,8.44,0,0,0-3.7.65A2.49,2.49,0,0,0,.36,3.75a10.08,10.08,0,0,0-.36,3,10.45,10.45,0,0,0,.36,3,2.74,2.74,0,0,0,1.45,1.7A8,8,0,0,0,5.22,12H19.14V48.43a21,21,0,0,0,.11,2.5,5.83,5.83,0,0,0,.65,1.88,3.06,3.06,0,0,0,1.88,1.49,12,12,0,0,0,3.59.43A12.37,12.37,0,0,0,29,54.31a3.07,3.07,0,0,0,1.92-1.49A5.86,5.86,0,0,0,31.57,51a20.07,20.07,0,0,0,.11-2.46V12H45.52a8.44,8.44,0,0,0,3.7-.65,2.49,2.49,0,0,0,1.23-1.56,10.1,10.1,0,0,0,.36-3,10.49,10.49,0,0,0-.36-3A2.75,2.75,0,0,0,49,2.08Z"/><path class="cls-2" d="M113.15,1.61q-4.64,0-5.65,2a5.79,5.79,0,0,0-.69,1.92A21.26,21.26,0,0,0,106.7,8v40.3a11.39,11.39,0,0,0,.43,3.7q.87,2.76,5.94,2.75,4.64,0,5.65-2a5.84,5.84,0,0,0,.69-1.88,21.16,21.16,0,0,0,.11-2.54V8.06a14.48,14.48,0,0,0-.36-3.77Q118.23,1.61,113.15,1.61Z"/><path class="cls-2" d="M202.75,1.61q-4.64,0-5.65,2a5.79,5.79,0,0,0-.69,1.92,21.05,21.05,0,0,0-.11,2.5v40.3a11.38,11.38,0,0,0,.44,3.7q.87,2.76,5.94,2.75,4.64,0,5.65-2A5.85,5.85,0,0,0,209,50.9a20.9,20.9,0,0,0,.11-2.54V8.06a14.43,14.43,0,0,0-.36-3.77Q207.82,1.61,202.75,1.61Z"/><path class="cls-2" d="M258.34,9.18a26,26,0,0,0-18.48-7.58l-13.41-.07q-4.64,0-5.65,2a5.82,5.82,0,0,0-.69,1.88A20.87,20.87,0,0,0,220,7.91v40.3a9.63,9.63,0,0,0,.87,4.64q1.09,1.81,5.51,1.81h13.27a25.54,25.54,0,0,0,18.88-7.9,26,26,0,0,0,7.79-19A24.69,24.69,0,0,0,258.34,9.18ZM249.28,38a13.56,13.56,0,0,1-9.42,3.88h-7V14.44h7a13.39,13.39,0,0,1,9.61,4,13.1,13.1,0,0,1,4.1,9.82A12.71,12.71,0,0,1,249.28,38Z"/><path class="cls-2" d="M300.24,5.38a6.14,6.14,0,0,0-5.8-3.77,6.42,6.42,0,0,0-3.44,1,6.34,6.34,0,0,0-2.43,2.68L269,45.82a9.44,9.44,0,0,0-1.23,3.7q0,2.61,4.2,4.64a9.51,9.51,0,0,0,3.88,1.23,3.73,3.73,0,0,0,2.32-.69,5.18,5.18,0,0,0,1.3-1.34q.4-.65,1.12-2.1l3.77-7.83h20.08l3.77,7.83q.73,1.45,1.12,2.17a4.31,4.31,0,0,0,1.31,1.38,3.87,3.87,0,0,0,2.32.65,9.52,9.52,0,0,0,3.88-1.23q4.2-2.1,4.2-4.71a9.47,9.47,0,0,0-1.23-3.7ZM289.58,32.7l4.78-9.93,4.86,9.93Z"/><path class="cls-2" d="M365.55,9.18a26,26,0,0,0-18.48-7.58l-13.41-.07q-4.64,0-5.65,2a5.82,5.82,0,0,0-.69,1.88,20.92,20.92,0,0,0-.11,2.54v40.3a9.62,9.62,0,0,0,.87,4.64q1.09,1.81,5.51,1.81h13.26a25.54,25.54,0,0,0,18.88-7.9,26,26,0,0,0,7.79-19A24.69,24.69,0,0,0,365.55,9.18ZM356.49,38a13.55,13.55,0,0,1-9.42,3.88h-7V14.44h7a13.39,13.39,0,0,1,9.6,4,13.1,13.1,0,0,1,4.1,9.82A12.7,12.7,0,0,1,356.49,38Z"/><circle class="cls-2" cx="175.1" cy="10.4" r="7.04"/><path class="cls-2" d="M176.14,34.21a13.3,13.3,0,0,0-4.25.35,3.76,3.76,0,0,1-3.57-1L149.65,14.87a4.13,4.13,0,0,1-1.17-3.37,10.4,10.4,0,1,0-16.76,7.09,3.84,3.84,0,0,1,1.43,3V40.26a2.27,2.27,0,0,1-.64,1.59,7.89,7.89,0,1,0,11.36.11,2.73,2.73,0,0,1-.75-1.87V23.52a.45.45,0,0,1,.77-.32l17.33,17.33a4,4,0,0,1,1.06,3.74,13.21,13.21,0,1,0,13.88-10.06Z"/><path class="cls-2" d="M95.11,29.43A19,19,0,0,0,97,20.91a19.19,19.19,0,0,0-1.89-8.56,16.68,16.68,0,0,0-4.86-6.09A20.13,20.13,0,0,0,77.84,1.61H62.31q-4.64,0-5.66,2A5.79,5.79,0,0,0,56,5.49,21,21,0,0,0,55.85,8V48.26A12.11,12.11,0,0,0,56.29,52q.87,2.69,5.95,2.68,4.64,0,5.66-2a5.83,5.83,0,0,0,.69-1.92,21.09,21.09,0,0,0,.11-2.5v-8.2h3.66l13,12.07a11.39,11.39,0,0,0,3,2.2q2.61,1.24,6.07-2.48,3.16-3.4,2.42-5.48a5.85,5.85,0,0,0-.91-1.79,20.93,20.93,0,0,0-1.79-1.81l-6.22-5.78a26.56,26.56,0,0,0,2.31-1.58A16.74,16.74,0,0,0,95.11,29.43Zm-13-3.74a7,7,0,0,1-4.28,1.6H68.7V14.45h9.07a7,7,0,0,1,4.35,1.63,5.73,5.73,0,0,1,2.1,4.83A5.63,5.63,0,0,1,82.12,25.7Z"/></svg>